<svg width="130" height="24" viewBox="0 0 130 24" fill="none" xmlns="http://www.w3.org/2000/svg">
<path fill-rule="evenodd" clip-rule="evenodd" d="M129.161 11.0045C129.317 10.9871 129.461 10.913 129.566 10.7963C129.671 10.6795 129.729 10.5283 129.73 10.3714V8.49557C129.728 8.40608 129.707 8.31799 129.669 8.23687C129.631 8.15576 129.577 8.08339 129.51 8.02436C129.443 7.96533 129.364 7.92093 129.278 7.89395C129.193 7.86698 129.103 7.85804 129.014 7.86768C127.89 7.95878 126.796 8.28173 125.803 8.81618C124.81 9.35063 123.938 10.085 123.242 10.973C122.547 10.085 121.676 9.35067 120.682 8.81622C119.689 8.28176 118.596 7.9588 117.472 7.86768C117.383 7.85804 117.293 7.86698 117.208 7.89395C117.122 7.92093 117.044 7.96533 116.976 8.02436C116.909 8.08339 116.855 8.15576 116.817 8.23687C116.779 8.31799 116.759 8.40608 116.756 8.49557V10.37C116.756 10.6886 116.998 10.9678 117.324 11.0045C119.744 11.2758 121.622 13.2643 121.622 15.675C121.622 18.0869 119.744 20.0754 117.323 20.3467C117.167 20.365 117.024 20.4394 116.92 20.556C116.815 20.6727 116.757 20.8234 116.756 20.9799V22.857C116.756 23.2279 117.089 23.5163 117.472 23.4835C118.596 23.3923 119.689 23.0693 120.682 22.5349C121.675 22.0004 122.547 21.2661 123.242 20.3782C123.938 21.2662 124.81 22.0005 125.803 22.5349C126.797 23.0694 127.89 23.3924 129.014 23.4835C129.103 23.4932 129.193 23.4843 129.278 23.4574C129.363 23.4305 129.442 23.3862 129.509 23.3273C129.577 23.2684 129.631 23.1962 129.669 23.1152C129.707 23.0343 129.728 22.9463 129.73 22.857V20.9812C129.729 20.8242 129.671 20.6728 129.567 20.5558C129.462 20.4388 129.318 20.3644 129.162 20.3467C126.742 20.0754 124.865 18.0869 124.865 15.675C124.865 13.263 126.741 11.2758 129.161 11.0045ZM85.9456 20.3782C83.2584 20.3782 81.0811 18.273 81.0811 15.675C81.0811 13.0795 83.2584 10.973 85.9456 10.973C88.6327 10.973 90.81 13.0782 90.81 15.675C90.81 18.273 88.6314 20.3782 85.9456 20.3782ZM85.9469 7.83753C84.1999 7.83222 82.4963 8.38112 81.0811 9.40528V0.629306C81.0797 0.545186 81.0618 0.462162 81.0283 0.384987C80.9948 0.307812 80.9464 0.238003 80.8859 0.179558C80.8254 0.121112 80.7539 0.075178 80.6756 0.0443857C80.5973 0.0135933 80.5137 -0.0014523 80.4296 0.000110363H78.4883C78.4043 -0.0012781 78.3208 0.0138964 78.2427 0.044767C78.1645 0.0756377 78.0932 0.1216 78.0329 0.180028C77.9725 0.238457 77.9242 0.308207 77.8908 0.385295C77.8574 0.462383 77.8395 0.545299 77.8381 0.629306V15.675C77.8381 20.0046 81.4678 23.5137 85.9456 23.5137C90.4233 23.5137 94.0543 20.0046 94.0543 15.675C94.0543 11.3466 90.4246 7.83753 85.9469 7.83753ZM66.4864 20.3782C63.7992 20.3782 61.6206 18.273 61.6206 15.675C61.6206 13.0795 63.7992 10.973 66.4864 10.973C69.1735 10.973 71.3508 13.0782 71.3508 15.675C71.3508 18.273 69.1735 20.3782 66.4864 20.3782ZM66.4864 7.83753C62.0086 7.83753 58.3776 11.3466 58.3776 15.6763C58.3776 20.0046 62.0086 23.5137 66.4864 23.5137C70.9641 23.5137 74.5938 20.0046 74.5938 15.675C74.5938 11.3466 70.9628 7.83753 66.4864 7.83753ZM47.0272 20.3782C44.34 20.3782 42.1614 18.273 42.1614 15.675C42.1614 13.0795 44.34 10.973 47.0272 10.973C49.7143 10.973 51.8903 13.0782 51.8903 15.675C51.8903 18.273 49.7143 20.3782 47.0272 20.3782ZM47.0272 7.83753C45.2802 7.83213 43.5766 8.38104 42.1614 9.40528V0.629306C42.16 0.545299 42.1421 0.462383 42.1087 0.385295C42.0753 0.308207 42.027 0.238457 41.9666 0.180028C41.9062 0.1216 41.835 0.0756377 41.7568 0.044767C41.6787 0.0138964 41.5952 -0.0012781 41.5112 0.000110363H39.5699C39.4858 -0.0014523 39.4022 0.0135933 39.3239 0.0443857C39.2456 0.075178 39.1741 0.121112 39.1136 0.179558C39.0531 0.238003 39.0047 0.307812 38.9712 0.384987C38.9377 0.462162 38.9198 0.545186 38.9184 0.629306V15.675C38.9184 20.0046 42.5494 23.5137 47.0272 23.5137C51.5049 23.5137 55.1346 20.0046 55.1346 15.675C55.1346 11.3466 51.5036 7.83753 47.0272 7.83753ZM27.5666 20.3782C24.8795 20.3782 22.7022 18.273 22.7022 15.675C22.7022 13.0795 24.8808 10.973 27.5666 10.973C30.2538 10.973 32.4324 13.0782 32.4324 15.675C32.4324 18.273 30.2538 20.3782 27.5666 20.3782ZM27.5666 7.83753C23.0889 7.83753 19.4592 11.3466 19.4592 15.6763C19.4592 20.0046 23.0902 23.5137 27.5666 23.5137C32.0457 23.5137 35.6754 20.0046 35.6754 15.675C35.6754 11.3466 32.0444 7.83753 27.5666 7.83753ZM8.10745 20.3782C5.42026 20.3782 3.24298 18.273 3.24298 15.675C3.24298 13.0795 5.42026 10.973 8.10745 10.973C10.7946 10.973 12.9719 13.0782 12.9719 15.675C12.9719 18.273 10.7933 20.3782 8.10745 20.3782ZM8.10876 7.83753C6.36181 7.83213 4.65818 8.38104 3.24298 9.40528V0.629306C3.24162 0.545186 3.22367 0.462162 3.19017 0.384987C3.15668 0.307812 3.10828 0.238003 3.04777 0.179558C2.98725 0.121112 2.9158 0.075178 2.83751 0.0443857C2.75922 0.0135933 2.67562 -0.0014523 2.5915 0.000110363H0.65148C0.567364 -0.0014523 0.483765 0.0135933 0.405472 0.0443857C0.327178 0.075178 0.255728 0.121112 0.195212 0.179558C0.134697 0.238003 0.0863046 0.307812 0.0528071 0.384987C0.0193096 0.462162 0.00136468 0.545186 0 0.629306V15.675C0 20.0046 3.62968 23.5137 8.10745 23.5137C12.5852 23.5137 16.2162 20.0046 16.2162 15.675C16.2162 11.3466 12.5865 7.83753 8.10876 7.83753ZM105.405 20.3782C102.718 20.3782 100.54 18.273 100.54 15.675C100.54 13.0795 102.719 10.973 105.405 10.973C108.092 10.973 110.269 13.0782 110.269 15.675C110.269 18.273 108.092 20.3782 105.405 20.3782ZM105.406 7.83753C100.927 7.83753 97.2973 11.3466 97.2973 15.6763C97.2973 20.0046 100.928 23.5137 105.405 23.5137C109.884 23.5137 113.514 20.0046 113.514 15.675C113.514 11.3466 109.884 7.83753 105.406 7.83753Z" fill="white"/>
</svg>
