<svg width="40" height="40" viewBox="0 0 40 40" fill="none" xmlns="http://www.w3.org/2000/svg">
<circle cx="20" cy="20" r="20" fill="#FFBB00"/>
<circle cx="20.0005" cy="20.0001" r="15.6436" fill="#FFBB00" stroke="#F5821F" stroke-width="0.792079"/>
<path d="M26.4764 26.0001C27.1123 25.5155 27.6221 24.8847 27.9626 24.1613C28.3031 23.4379 28.4642 22.643 28.4324 21.8441C28.4324 21.7161 28.4324 21.5921 28.4324 21.4681C30.1884 20.7401 31.3924 19.0361 31.3924 16.7281C31.3884 15.2001 30.8404 14.0001 29.8724 13.2001C28.8792 12.4637 27.6638 12.0897 26.4284 12.1401C25.5028 12.1405 24.5851 12.3099 23.7204 12.6401C22.5675 11.9578 21.2521 11.5986 19.9124 11.6001H19.8764C18.5366 11.5976 17.2209 11.9569 16.0684 12.6401C15.2034 12.3113 14.2857 12.1432 13.3604 12.1441C12.1254 12.0919 10.9098 12.4646 9.91639 13.2001C8.95239 14.0001 8.40039 15.1641 8.40039 16.7041V16.7681C8.40039 19.0601 9.60039 20.7681 11.3604 21.4761C11.3604 21.6001 11.3604 21.7241 11.3604 21.8481C11.3277 22.6462 11.4881 23.4403 11.8279 24.1632C12.1678 24.886 12.677 25.5161 13.3124 26.0001C14.3903 26.7641 15.6359 27.2579 16.9444 27.4401C17.8229 27.9765 18.8351 28.2538 19.8644 28.2401H19.9244C20.9524 28.2539 21.9633 27.9766 22.8404 27.4401C24.1497 27.2564 25.3963 26.7627 26.4764 26.0001ZM22.5364 26.6801C21.7552 27.2024 20.8318 27.4707 19.8924 27.4481C18.9543 27.4701 18.0323 27.2019 17.2524 26.6801C14.8524 26.3041 12.1524 25.1761 12.1524 21.8521C12.1524 21.5401 12.1524 21.2281 12.1924 20.9161C10.4644 20.4561 9.20039 18.9641 9.20039 16.7361C9.20039 14.0281 11.0604 12.9441 13.3604 12.9441C14.318 12.9395 15.2651 13.1429 16.1364 13.5401C17.2479 12.7967 18.5551 12.3998 19.8924 12.3998C21.2297 12.3998 22.5368 12.7967 23.6484 13.5401C24.5271 13.1396 25.4828 12.9362 26.4484 12.9441C28.7444 12.9441 30.6084 14.0281 30.6084 16.7361C30.6084 18.9641 29.3404 20.4561 27.6124 20.9161C27.6404 21.2281 27.6524 21.5401 27.6524 21.8521C27.6524 25.1761 24.9684 26.3041 22.5564 26.6801H22.5364Z" fill="#F5821F"/>
<path d="M28.8002 17.5999C28.8002 15.4359 27.3122 14.5679 25.4722 14.5679C25.2838 14.5686 25.0955 14.5792 24.9082 14.5999C26.3727 16.2081 27.2911 18.2382 27.5322 20.3999C27.9496 20.0664 28.2821 19.6388 28.5025 19.1521C28.7228 18.6655 28.8249 18.1335 28.8002 17.5999ZM27.3242 15.8959C27.5623 16.1073 27.7474 16.3715 27.8648 16.6675C27.9822 16.9634 28.0286 17.2828 28.0002 17.5999C28.0026 17.857 27.9744 18.1134 27.9162 18.3639C27.6254 17.3668 27.1973 16.415 26.6442 15.5359C26.8928 15.6119 27.1248 15.734 27.3282 15.8959H27.3242Z" fill="#F5821F"/>
<path d="M19.8917 19.7598C18.6917 19.7598 17.6797 21.3358 17.6797 23.2758C17.6797 25.2158 18.7037 25.7078 19.8917 25.7078C21.0797 25.7078 22.1077 25.2158 22.1077 23.2758C22.1077 21.3358 21.0797 19.7598 19.8917 19.7598ZM20.9077 24.6278C20.6145 24.8419 20.2532 24.9415 19.8917 24.9078C19.5303 24.9408 19.1692 24.8412 18.8757 24.6278C18.6957 24.4638 18.4757 24.1118 18.4757 23.2758C18.4594 22.5539 18.645 21.8418 19.0117 21.2198C19.3357 20.7118 19.6717 20.5598 19.8877 20.5598C20.1037 20.5598 20.4437 20.7118 20.7677 21.2198C21.1324 21.8426 21.3179 22.5541 21.3037 23.2758C21.3077 24.1118 21.0877 24.4638 20.9077 24.6278Z" fill="#F5821F"/>
<path d="M23.1605 19.544C22.9882 19.548 22.821 19.6029 22.68 19.7018C22.5389 19.8007 22.4303 19.9392 22.3679 20.0998C22.3054 20.2603 22.292 20.4358 22.3292 20.604C22.3663 20.7722 22.4525 20.9257 22.5768 21.045C22.7011 21.1642 22.858 21.244 23.0276 21.2743C23.1972 21.3045 23.3719 21.2838 23.5298 21.2148C23.6877 21.1458 23.8216 21.0316 23.9146 20.8866C24.0076 20.7416 24.0556 20.5723 24.0525 20.4C24.0462 20.1687 23.949 19.9492 23.7821 19.789C23.6151 19.6288 23.3918 19.5408 23.1605 19.544ZM23.2325 20.456L23.1605 20.484L23.0885 20.456V20.416V20.372L23.1605 20.344L23.2325 20.372L23.2525 20.416L23.2325 20.456Z" fill="#F5821F"/>
<path d="M10.9839 17.5999C10.9599 18.1335 11.0622 18.6652 11.2825 19.1517C11.5029 19.6383 11.835 20.066 12.2519 20.3999C12.4933 18.2383 13.4117 16.2082 14.8759 14.5999C14.6873 14.5791 14.4977 14.5685 14.3079 14.5679C12.4719 14.5679 10.9839 15.4359 10.9839 17.5999ZM11.8639 18.3639C11.8093 18.1129 11.7825 17.8567 11.7839 17.5999C11.7555 17.2828 11.8019 16.9634 11.9193 16.6675C12.0367 16.3715 12.2218 16.1073 12.4599 15.8959C12.6612 15.7353 12.8903 15.6132 13.1359 15.5359C12.5846 16.4159 12.1566 17.3675 11.8639 18.3639Z" fill="#F5821F"/>
<path d="M16.6233 19.5441C16.4511 19.5481 16.2839 19.603 16.1429 19.7019C16.0018 19.8008 15.8932 19.9393 15.8308 20.0998C15.7683 20.2604 15.7549 20.4359 15.792 20.6041C15.8292 20.7723 15.9154 20.9257 16.0397 21.045C16.164 21.1643 16.3209 21.2441 16.4905 21.2743C16.6601 21.3046 16.8348 21.2839 16.9927 21.2149C17.1506 21.1459 17.2844 21.0317 17.3775 20.8867C17.4705 20.7417 17.5185 20.5723 17.5153 20.4001C17.5101 20.1685 17.4133 19.9483 17.2461 19.7879C17.0789 19.6275 16.855 19.5398 16.6233 19.5441ZM16.6953 20.4561L16.6233 20.4841L16.5553 20.4561L16.5353 20.4161L16.5553 20.3721L16.6233 20.3441L16.6953 20.3721L16.7153 20.4161L16.6953 20.4561Z" fill="#F5821F"/>
</svg>
