<svg width="52" height="52" viewBox="0 0 52 52" fill="none" xmlns="http://www.w3.org/2000/svg">
<circle cx="26.0001" cy="26.0001" r="26.0001" fill="#457FAF"/>
<g clip-path="url(#clip0_121_7209)">
<path fill-rule="evenodd" clip-rule="evenodd" d="M35.3518 30.352C35.0329 30.3511 34.7178 30.4207 34.4288 30.5557C34.2441 30.6613 34.035 30.7169 33.8222 30.7169C33.6093 30.7169 33.4002 30.6613 33.2155 30.5557C33.1009 30.4751 33.0075 30.368 32.9434 30.2435C32.8792 30.119 32.8462 29.9808 32.8471 29.8407V25.8107C32.8535 24.6104 32.5553 23.4281 31.9805 22.3743C31.907 22.245 31.881 22.0941 31.9072 21.9477C31.9333 21.8012 32.0098 21.6686 32.1235 21.5727C32.2413 21.4893 32.3821 21.4445 32.5265 21.4445C32.6708 21.4445 32.8116 21.4893 32.9295 21.5727C33.411 21.871 33.9664 22.0287 34.5328 22.0277C35.2883 22.0416 36.0185 21.755 36.5629 21.231C37.1073 20.7069 37.4214 19.9882 37.4362 19.2326C37.3955 18.4855 37.07 17.7825 36.5267 17.268C35.9835 16.7535 35.2637 16.4668 34.5155 16.4668C33.7673 16.4668 33.0475 16.7535 32.5043 17.268C31.961 17.7825 31.6355 18.4855 31.5948 19.2326C31.5953 19.422 31.6156 19.6108 31.6555 19.796C31.6907 19.9319 31.6879 20.075 31.6474 20.2095C31.6069 20.344 31.5303 20.4647 31.4258 20.5587C31.2929 20.6659 31.1248 20.72 30.9543 20.7104C30.7837 20.7008 30.6228 20.6282 30.5028 20.5067C29.4805 19.5503 28.2231 18.882 26.8585 18.5696C26.3938 18.4613 25.9105 18.4613 25.4458 18.5696C23.953 18.9124 22.5919 19.6817 21.5284 20.784C21.3053 21.0338 21.0007 21.1962 20.6689 21.2423C20.3372 21.2883 19.9998 21.215 19.7171 21.0353L19.4311 20.8317C19.3107 20.7335 19.2155 20.6079 19.1537 20.4654C19.0919 20.3229 19.0651 20.1676 19.0758 20.0126C19.0577 19.4751 18.8281 18.9664 18.437 18.5972C18.0458 18.228 17.5248 18.0281 16.9871 18.041C16.4476 18.0282 15.9251 18.23 15.5343 18.6021C15.1435 18.9742 14.9164 19.4862 14.9028 20.0256C14.9164 20.5651 15.1435 21.0771 15.5343 21.4492C15.9251 21.8213 16.4476 22.0231 16.9871 22.0103C17.1177 22.0113 17.2482 22.0012 17.3771 21.98C17.9924 21.8673 18.6771 21.798 19.1884 22.1577C19.4517 22.3605 19.6464 22.6391 19.7463 22.956C19.8463 23.2729 19.8467 23.6129 19.7474 23.93C19.5767 24.5423 19.4907 25.175 19.4918 25.8107V29.7497C19.4921 29.909 19.4569 30.0663 19.3886 30.2102C19.3204 30.3542 19.2209 30.4811 19.0974 30.5817C18.9261 30.7015 18.731 30.7828 18.5253 30.8202C18.3196 30.8576 18.1083 30.8502 17.9058 30.7983C17.7415 30.7671 17.5747 30.7511 17.4074 30.7507C17.0824 30.7311 16.7567 30.7782 16.4505 30.8891C16.1443 31 15.864 31.1724 15.6269 31.3956C15.3898 31.6188 15.2009 31.8882 15.0717 32.1872C14.9426 32.4861 14.876 32.8084 14.876 33.134C14.876 33.4597 14.9426 33.7819 15.0717 34.0809C15.2009 34.3798 15.3898 34.6492 15.6269 34.8725C15.864 35.0957 16.1443 35.2681 16.4505 35.379C16.7567 35.4899 17.0824 35.537 17.4074 35.5174C18.0554 35.5325 18.6829 35.2901 19.1524 34.8434C19.6219 34.3966 19.8951 33.7819 19.9121 33.134C19.9122 32.9259 19.883 32.7187 19.8254 32.5187C19.7527 32.3158 19.7402 32.0961 19.7894 31.8862C19.8386 31.6763 19.9474 31.4851 20.1028 31.3357C20.2506 31.2146 20.436 31.1487 20.6271 31.1493H31.3955C31.7587 31.1473 32.1134 31.2595 32.4095 31.47L33.0681 31.9337C33.131 31.9809 33.1815 32.0426 33.2154 32.1135C33.2494 32.1844 33.2657 32.2625 33.2631 32.341C33.2432 32.7578 33.3486 33.171 33.5657 33.5273C33.7828 33.8836 34.1016 34.1668 34.481 34.3403C34.8605 34.5137 35.2832 34.5696 35.6948 34.5006C36.1063 34.4316 36.4877 34.241 36.7898 33.9532C37.092 33.6655 37.301 33.2939 37.39 32.8862C37.479 32.4786 37.4439 32.0536 37.2892 31.6661C37.1345 31.2786 36.8672 30.9464 36.5219 30.7121C36.1766 30.4779 35.7691 30.3525 35.3518 30.352V30.352ZM26.1695 22.0103C26.4115 22.0052 26.6521 22.0479 26.8776 22.136C27.103 22.2241 27.3089 22.3559 27.4832 22.5238C27.6576 22.6917 27.797 22.8925 27.8936 23.1144C27.9901 23.3364 28.0419 23.5753 28.0458 23.8173C28.0135 24.2929 27.8017 24.7385 27.4534 25.0639C27.1051 25.3894 26.6462 25.5704 26.1695 25.5704C25.6928 25.5704 25.2339 25.3894 24.8855 25.0639C24.5372 24.7385 24.3255 24.2929 24.2931 23.8173C24.2971 23.5753 24.3488 23.3364 24.4453 23.1144C24.5419 22.8925 24.6813 22.6917 24.8557 22.5238C25.0301 22.3559 25.2359 22.2241 25.4613 22.136C25.6868 22.0479 25.9274 22.0052 26.1695 22.0103V22.0103ZM29.9265 28.714C29.9265 29.1473 29.7141 29.1473 29.4541 29.1473H22.8848C22.6248 29.1473 22.4125 29.1473 22.4125 28.714V28.2807C22.4125 27.0933 24.9171 26.4953 26.1695 26.4953C27.4218 26.4953 29.9265 27.0933 29.9265 28.2807V28.714Z" fill="white"/>
</g>
<defs>
<clipPath id="clip0_121_7209">
<rect width="22.5334" height="22.5334" fill="white" transform="translate(14.876 14.7334)"/>
</clipPath>
</defs>
</svg>
