<svg width="32" height="19" viewBox="0 0 32 19" fill="none" xmlns="http://www.w3.org/2000/svg">
<g clip-path="url(#clip0_121_7213)">
<rect x="0.5" y="0.5" width="31" height="18" rx="9" fill="#F5821F" stroke="white"/>
<path d="M11.5469 14H10.416L6.12109 7.42578V14H4.99023V5.46875H6.12109L10.4277 12.0723V5.46875H11.5469V14ZM16.0059 14.1172C15.1465 14.1172 14.4473 13.8359 13.9082 13.2734C13.3691 12.707 13.0996 11.9512 13.0996 11.0059V10.8066C13.0996 10.1777 13.2188 9.61719 13.457 9.125C13.6992 8.62891 14.0352 8.24219 14.4648 7.96484C14.8984 7.68359 15.3672 7.54297 15.8711 7.54297C16.6953 7.54297 17.3359 7.81445 17.793 8.35742C18.25 8.90039 18.4785 9.67773 18.4785 10.6895V11.1406H14.1836C14.1992 11.7656 14.3809 12.2715 14.7285 12.6582C15.0801 13.041 15.5254 13.2324 16.0645 13.2324C16.4473 13.2324 16.7715 13.1543 17.0371 12.998C17.3027 12.8418 17.5352 12.6348 17.7344 12.377L18.3965 12.8926C17.8652 13.709 17.0684 14.1172 16.0059 14.1172ZM15.8711 8.43359C15.4336 8.43359 15.0664 8.59375 14.7695 8.91406C14.4727 9.23047 14.2891 9.67578 14.2188 10.25H17.3945V10.168C17.3633 9.61719 17.2148 9.19141 16.9492 8.89062C16.6836 8.58594 16.3242 8.43359 15.8711 8.43359ZM25.3516 12.5059L26.5703 7.66016H27.6543L25.8086 14H24.9297L23.3887 9.19531L21.8887 14H21.0098L19.1699 7.66016H20.248L21.4961 12.4062L22.9727 7.66016H23.8457L25.3516 12.5059Z" fill="white"/>
</g>
<defs>
<clipPath id="clip0_121_7213">
<rect width="32" height="19" fill="white"/>
</clipPath>
</defs>
</svg>
