<svg width="52" height="52" viewBox="0 0 52 52" fill="none" xmlns="http://www.w3.org/2000/svg">
<circle cx="26.0001" cy="26.0001" r="26.0001" fill="#508A71"/>
<g clip-path="url(#clip0_121_7208)">
<path d="M22.6634 22.0605C22.68 22.0617 22.6966 22.0587 22.7117 22.0518C22.7269 22.0448 22.7401 22.0341 22.7501 22.0206C22.7717 21.9881 22.7823 21.9492 22.7804 21.9099C22.7844 21.8718 22.7735 21.8337 22.7501 21.8037C22.7401 21.7902 22.7269 21.7795 22.7117 21.7726C22.6966 21.7656 22.68 21.7626 22.6634 21.7639C22.6463 21.763 22.6292 21.7661 22.6134 21.773C22.5977 21.7799 22.5836 21.7904 22.5724 21.8037C22.5491 21.8337 22.5382 21.8718 22.5421 21.9099C22.5423 21.949 22.5528 21.9872 22.5724 22.0206C22.5836 22.0339 22.5977 22.0444 22.6134 22.0513C22.6292 22.0582 22.6463 22.0613 22.6634 22.0605Z" fill="white"/>
<path d="M22.6634 22.6269C22.6829 22.628 22.7023 22.6246 22.7203 22.6169C22.7383 22.6092 22.7544 22.5975 22.7674 22.5827C22.7927 22.5482 22.8064 22.5062 22.8064 22.4631C22.8064 22.42 22.7927 22.3781 22.7674 22.3436C22.7398 22.3155 22.7024 22.2997 22.6634 22.2997C22.6244 22.2997 22.587 22.3155 22.5594 22.3436C22.5438 22.3589 22.5318 22.3776 22.5243 22.3983C22.5168 22.419 22.514 22.4412 22.5161 22.4631C22.5146 22.4851 22.5177 22.5071 22.5252 22.5277C22.5326 22.5483 22.5443 22.567 22.5594 22.5827C22.5724 22.5975 22.5885 22.6092 22.6065 22.6169C22.6245 22.6246 22.6439 22.628 22.6634 22.6269Z" fill="white"/>
<path d="M30.3335 30.0774C30.3144 30.0763 30.2953 30.0793 30.2774 30.0862C30.2595 30.0931 30.2432 30.1036 30.2295 30.1172C30.2019 30.1522 30.188 30.1964 30.1905 30.2412C30.1887 30.2846 30.2026 30.3271 30.2295 30.3607C30.2588 30.3888 30.2975 30.4046 30.3378 30.405C30.3572 30.4052 30.3764 30.4013 30.3942 30.3937C30.4121 30.3861 30.4283 30.3749 30.4418 30.3607C30.4687 30.3271 30.4826 30.2846 30.4808 30.2412C30.4824 30.2186 30.4793 30.1959 30.4719 30.1746C30.4644 30.1532 30.4527 30.1337 30.4375 30.1172C30.4238 30.1036 30.4074 30.0931 30.3895 30.0862C30.3716 30.0793 30.3525 30.0763 30.3335 30.0774Z" fill="white"/>
<path d="M18.6334 25.9869C18.5686 25.988 18.5069 26.0151 18.4615 26.0623C18.4161 26.1095 18.3907 26.1731 18.3907 26.2392V27.2308C18.3883 27.2648 18.3928 27.299 18.404 27.3311C18.4151 27.3633 18.4326 27.3927 18.4554 27.4177C18.4781 27.4426 18.5057 27.4625 18.5363 27.476C18.567 27.4896 18.6 27.4965 18.6334 27.4964C18.6974 27.4953 18.7585 27.4688 18.8037 27.4226C18.849 27.3763 18.8749 27.3139 18.8761 27.2485V26.2392C18.8761 26.1731 18.8506 26.1095 18.8052 26.0623C18.7599 26.0151 18.6981 25.988 18.6334 25.9869Z" fill="white"/>
<path d="M36.2961 18.2002H31.3908L31.3908 25.1857C31.3908 25.5015 31.268 25.8044 31.0494 26.0277C30.8308 26.251 30.5343 26.3765 30.2251 26.3765H21.7751C21.5694 26.3765 21.3721 26.46 21.2266 26.6086C21.0811 26.7572 20.9994 26.9587 20.9994 27.1689V33.7781H20.6094V27.1689C20.6088 27.0124 20.6386 26.8572 20.697 26.7125C20.7554 26.5678 20.8412 26.4363 20.9496 26.3256C21.0579 26.2149 21.1866 26.1272 21.3283 26.0675C21.47 26.0079 21.6218 25.9775 21.7751 25.9781H30.2251C30.4308 25.9781 30.6281 25.8946 30.7736 25.746C30.9191 25.5974 31.0008 25.3958 31.0008 25.1857L31.0008 18.2002H15.7041C15.4466 18.2002 15.1997 18.3047 15.0177 18.4906C14.8357 18.6766 14.7334 18.9288 14.7334 19.1918V32.8086C14.7334 32.9389 14.7585 33.0678 14.8073 33.1881C14.8561 33.3084 14.9276 33.4177 15.0177 33.5098C15.1078 33.6019 15.2148 33.6749 15.3326 33.7248C15.4504 33.7746 15.5766 33.8002 15.7041 33.8002H36.2961C36.4236 33.8002 36.5498 33.7746 36.6676 33.7248C36.7854 33.6749 36.8924 33.6019 36.9825 33.5098C37.0726 33.4177 37.1441 33.3084 37.1929 33.1881C37.2417 33.0678 37.2668 32.9389 37.2668 32.8086V19.1918C37.2668 18.9288 37.1645 18.6766 36.9825 18.4906C36.8005 18.3047 36.5536 18.2002 36.2961 18.2002ZM24.1628 21.1042C24.1628 20.9727 24.2139 20.8466 24.3049 20.7536C24.3959 20.6606 24.5194 20.6084 24.6481 20.6084H29.4971C29.6258 20.6084 29.7493 20.6606 29.8403 20.7536C29.9313 20.8466 29.9824 20.9727 29.9824 21.1042V23.0697C29.9824 23.2012 29.9313 23.3273 29.8403 23.4203C29.7493 23.5132 29.6258 23.5655 29.4971 23.5655H24.6394C24.5107 23.5655 24.3873 23.5132 24.2962 23.4203C24.2052 23.3273 24.1541 23.2012 24.1541 23.0697L24.1628 21.1042ZM22.2994 22.0559C22.2694 22.0069 22.2544 21.9499 22.2561 21.8921C22.2538 21.8431 22.2624 21.7942 22.2811 21.749C22.2999 21.7037 22.3284 21.6634 22.3644 21.631C22.4517 21.5675 22.5562 21.5334 22.6634 21.5334C22.7706 21.5334 22.8751 21.5675 22.9624 21.631C22.9978 21.664 23.0258 21.7044 23.0444 21.7495C23.0631 21.7946 23.0721 21.8432 23.0708 21.8921C23.0709 21.9503 23.0544 22.0073 23.0231 22.0559C22.9937 22.1049 22.9517 22.1447 22.9018 22.171C22.9591 22.1969 23.0086 22.2382 23.0448 22.2906C23.0799 22.3442 23.0981 22.4075 23.0968 22.4721C23.099 22.5232 23.0896 22.5742 23.0693 22.6211C23.049 22.6679 23.0183 22.7094 22.9798 22.7421C22.889 22.812 22.7769 22.8466 22.6634 22.8395C22.5487 22.8465 22.4351 22.812 22.3428 22.7421C22.3042 22.7094 22.2735 22.6679 22.2532 22.6211C22.233 22.5742 22.2235 22.5232 22.2258 22.4721C22.2245 22.4089 22.2427 22.347 22.2778 22.295C22.3151 22.2441 22.3664 22.2056 22.4251 22.1843C22.3731 22.1532 22.3298 22.109 22.2994 22.0559ZM21.1901 21.5557H22.1001V21.7106L21.6364 22.8218H21.3331L21.7968 21.7815H21.1901V21.5557ZM19.5911 32.2907C19.594 32.3576 19.5836 32.4245 19.5605 32.4872C19.5375 32.55 19.5022 32.6073 19.4568 32.6557C19.4115 32.7041 19.357 32.7426 19.2966 32.7689C19.2363 32.7952 19.1713 32.8087 19.1057 32.8086H16.4321C16.3665 32.8087 16.3015 32.7952 16.2412 32.7689C16.1809 32.7426 16.1264 32.7041 16.081 32.6557C16.0356 32.6073 16.0003 32.55 15.9773 32.4872C15.9542 32.4245 15.9438 32.3576 15.9467 32.2907V19.6876C15.9467 19.5561 15.9979 19.43 16.0889 19.337C16.1799 19.244 16.3034 19.1918 16.4321 19.1918H19.1057C19.2345 19.1918 19.3579 19.244 19.4489 19.337C19.5399 19.43 19.5911 19.5561 19.5911 19.6876V32.2907ZM27.8461 30.8741C27.8461 31.0056 27.795 31.1317 27.704 31.2247C27.6129 31.3177 27.4895 31.3699 27.3608 31.3699H22.5031C22.3744 31.3699 22.2509 31.3177 22.1599 31.2247C22.0689 31.1317 22.0178 31.0056 22.0178 30.8741V28.8909C22.016 28.8247 22.0273 28.7588 22.0509 28.6971C22.0745 28.6354 22.11 28.5792 22.1552 28.5317C22.2005 28.4843 22.2546 28.4465 22.3143 28.4208C22.3741 28.3951 22.4382 28.3818 22.5031 28.3818H27.3608C27.4895 28.3818 27.6129 28.4341 27.704 28.5271C27.795 28.62 27.8461 28.7461 27.8461 28.8776V30.8741ZM29.7571 29.5018L29.2934 30.5952H28.9901L29.4668 29.5682H28.8601V29.3425H29.7571V29.5018ZM30.6541 30.5333C30.5626 30.6015 30.451 30.6359 30.3378 30.6307C30.2232 30.6358 30.1103 30.6015 30.0171 30.5333C29.9788 30.5003 29.9483 30.4589 29.9281 30.4121C29.9078 30.3653 29.8982 30.3144 29.9001 30.2632C29.8993 30.1988 29.9174 30.1356 29.9521 30.0817C29.9882 30.0282 30.0376 29.9854 30.0951 29.9578C30.0462 29.9318 30.0045 29.8938 29.9738 29.8471C29.9425 29.7985 29.9259 29.7415 29.9261 29.6833C29.9241 29.6339 29.9332 29.5846 29.9527 29.5393C29.9722 29.494 30.0017 29.454 30.0388 29.4221C30.1254 29.359 30.2292 29.3251 30.3356 29.3251C30.442 29.3251 30.5458 29.359 30.6324 29.4221C30.6695 29.454 30.699 29.494 30.7185 29.5393C30.7381 29.5846 30.7472 29.6339 30.7451 29.6833C30.7453 29.7415 30.7287 29.7985 30.6974 29.8471C30.6667 29.8938 30.625 29.9318 30.5761 29.9578C30.6317 29.9867 30.6793 30.0293 30.7148 30.0817C30.7505 30.1351 30.7687 30.1986 30.7668 30.2632C30.7689 30.314 30.7599 30.3645 30.7404 30.4113C30.7209 30.458 30.6914 30.4997 30.6541 30.5333ZM36.0535 32.304C36.0546 32.3698 36.0429 32.4353 36.019 32.4964C35.9952 32.5576 35.9596 32.6133 35.9144 32.6603C35.8692 32.7073 35.8153 32.7446 35.7559 32.7701C35.6964 32.7955 35.6326 32.8086 35.5681 32.8086H32.8945C32.7657 32.8086 32.6423 32.7564 32.5513 32.6634C32.4603 32.5704 32.4091 32.4443 32.4091 32.3128V19.6876C32.4091 19.5561 32.4603 19.43 32.5513 19.337C32.6423 19.244 32.7657 19.1918 32.8945 19.1918H35.5681C35.6319 19.1918 35.695 19.2046 35.7539 19.2295C35.8127 19.2545 35.8662 19.291 35.9113 19.337C35.9564 19.3831 35.9921 19.4377 36.0165 19.4979C36.0409 19.558 36.0535 19.6225 36.0535 19.6876V32.304Z" fill="white"/>
<path d="M33.3668 25.9869C33.302 25.988 33.2403 26.0151 33.1949 26.0623C33.1495 26.1095 33.1241 26.1731 33.1241 26.2392V27.2308C33.1241 27.2966 33.1497 27.3596 33.1952 27.4061C33.2407 27.4526 33.3024 27.4787 33.3668 27.4787C33.4312 27.4787 33.4929 27.4526 33.5384 27.4061C33.5839 27.3596 33.6095 27.2966 33.6095 27.2308V26.2392C33.6095 26.1731 33.584 26.1095 33.5387 26.0623C33.4933 26.0151 33.4315 25.988 33.3668 25.9869Z" fill="white"/>
<path d="M30.3334 29.8514C30.3503 29.8522 30.3672 29.8485 30.3823 29.8408C30.3975 29.833 30.4105 29.8215 30.42 29.8072C30.4422 29.7749 30.4529 29.7359 30.4504 29.6965C30.453 29.6585 30.4422 29.6208 30.42 29.5903C30.4088 29.577 30.3948 29.5665 30.379 29.5596C30.3633 29.5527 30.3462 29.5495 30.329 29.5504C30.3125 29.5495 30.2961 29.5527 30.281 29.5596C30.2659 29.5666 30.2527 29.5771 30.2424 29.5903C30.2202 29.6208 30.2094 29.6585 30.212 29.6965C30.2095 29.7359 30.2202 29.7749 30.2424 29.8072C30.2533 29.821 30.2672 29.8322 30.283 29.8398C30.2987 29.8475 30.3159 29.8515 30.3334 29.8514Z" fill="white"/>
</g>
<defs>
<clipPath id="clip0_121_7208">
<rect width="22.5334" height="22.5334" fill="white" transform="translate(14.7334 14.7334)"/>
</clipPath>
</defs>
</svg>
