<svg width="52" height="52" viewBox="0 0 52 52" fill="none" xmlns="http://www.w3.org/2000/svg">
<circle cx="26.0001" cy="26.0001" r="26.0001" fill="#00AFAA"/>
<g clip-path="url(#clip0_121_7207)">
<path d="M32.1107 33.0941C31.9453 33.0941 31.7836 33.1431 31.646 33.235C31.5085 33.3269 31.4013 33.4575 31.338 33.6103C31.2747 33.7632 31.2581 33.9313 31.2904 34.0936C31.3227 34.2558 31.4023 34.4048 31.5193 34.5218C31.6363 34.6387 31.7853 34.7184 31.9475 34.7507C32.1098 34.7829 32.2779 34.7664 32.4307 34.7031C32.5835 34.6398 32.7142 34.5326 32.8061 34.395C32.898 34.2575 32.947 34.0958 32.947 33.9304C32.9476 33.8204 32.9263 33.7114 32.8845 33.6097C32.8427 33.5079 32.7811 33.4155 32.7033 33.3377C32.6256 33.26 32.5331 33.1984 32.4314 33.1566C32.3297 33.1147 32.2207 33.0935 32.1107 33.0941Z" fill="white"/>
<path d="M30.4682 23.9117C28.7523 24.1721 27.1722 24.997 25.9779 26.2561L25.8609 26.3947C25.7684 26.4929 25.6817 26.5926 25.6008 26.6937C25.5315 26.7761 25.4664 26.8584 25.4058 26.9451C25.3451 27.0317 25.2497 27.1574 25.176 27.2657C25.1024 27.3741 25.059 27.4391 25.0027 27.5301C24.9463 27.6211 24.8683 27.7554 24.8033 27.8724C24.7383 27.9894 24.6993 28.0544 24.6516 28.1497C24.6039 28.2451 24.5389 28.3924 24.4826 28.5181L24.3612 28.8041C24.3092 28.9341 24.2658 29.0641 24.2225 29.1941C24.1792 29.3241 24.1575 29.3891 24.1272 29.4844C24.0968 29.5797 24.0535 29.7661 24.0231 29.9177C23.9928 30.0694 23.9755 30.1084 23.9581 30.2037C23.9408 30.2991 23.9061 30.5244 23.8844 30.6891C23.8844 30.7671 23.8628 30.8494 23.8541 30.9317C23.828 31.1793 23.815 31.4281 23.8151 31.6771V34.7624C23.8197 35.4275 24.0868 36.0639 24.5585 36.533C25.0301 37.0021 25.668 37.266 26.3333 37.2671H27.1525V30.6024C27.1525 30.1565 27.3297 29.7288 27.645 29.4135C27.9604 29.0982 28.3882 28.9211 28.8342 28.9211H32.1282C32.5735 28.9222 33.0001 29.0999 33.3146 29.415C33.629 29.7302 33.8056 30.1572 33.8056 30.6024V37.2671H34.6118C35.2789 37.2648 35.9178 36.9979 36.3883 36.5251C36.8589 36.0522 37.1225 35.4121 37.1213 34.7451V31.6597C37.123 29.7861 36.4526 27.9739 35.2318 26.5523C34.0111 25.1306 32.3209 24.1937 30.4682 23.9117Z" fill="white"/>
<path d="M19.6541 33.4667V36.4351C19.6541 36.6557 19.7417 36.8674 19.8978 37.0234C20.0538 37.1794 20.2654 37.2671 20.4861 37.2671C20.7067 37.2671 20.9184 37.1794 21.0744 37.0234C21.2304 36.8674 21.3181 36.6557 21.3181 36.4351V33.4364C21.0056 33.4853 20.6897 33.5099 20.3734 33.5101C20.1329 33.5111 19.8927 33.4967 19.6541 33.4667Z" fill="white"/>
<path d="M25.5704 25.1641L21.0845 15.0674C21.0342 14.9641 20.955 14.8776 20.8565 14.8184C20.7581 14.7591 20.6445 14.7297 20.5297 14.7338C20.3884 14.7363 20.2507 14.7782 20.132 14.8548C20.0133 14.9313 19.9184 15.0395 19.8579 15.1671L15.2245 25.0645C14.8005 25.8937 14.5822 26.8126 14.588 27.7439C14.5938 28.6751 14.8236 29.5913 15.2579 30.4152C15.6922 31.239 16.3183 31.9463 17.0835 32.4774C17.8486 33.0086 18.7302 33.3478 19.6541 33.4667L19.6541 32.8211L17.487 30.2211C17.4146 30.1376 17.3594 30.0405 17.3245 29.9355C17.2897 29.8306 17.2759 29.7198 17.2839 29.6095C17.292 29.4992 17.3217 29.3916 17.3714 29.2928C17.4212 29.194 17.4899 29.106 17.5737 29.0338C17.7428 28.8928 17.961 28.8246 18.1803 28.8441C18.3997 28.8636 18.6023 28.9692 18.7439 29.1378L19.6541 30.2255V28.0848C19.6541 27.8641 19.7418 27.6525 19.8979 27.4965C20.0539 27.3405 20.2656 27.2528 20.4863 27.2528C20.707 27.2528 20.9187 27.3405 21.0748 27.4965C21.2308 27.6525 21.3185 27.8641 21.3185 28.0848L21.3181 33.4364C21.8926 33.3444 22.45 33.1648 22.9699 32.9035V31.6598C22.9702 30.4833 23.2093 29.319 23.6726 28.2375C24.136 27.156 24.8141 26.1797 25.6658 25.3678C25.6354 25.2985 25.6051 25.2335 25.5704 25.1641ZM17.7081 28.5398L16.7502 29.3458C16.708 29.3698 16.6587 29.3784 16.6109 29.3699C16.5631 29.3615 16.5198 29.3366 16.4884 29.2996C16.457 29.2625 16.4396 29.2157 16.4391 29.1672C16.4386 29.1186 16.4551 29.0714 16.4858 29.0338L17.4393 28.2278C17.4604 28.2102 17.4847 28.1968 17.5109 28.1886C17.5371 28.1804 17.5647 28.1774 17.5921 28.1798C17.6194 28.1822 17.6461 28.19 17.6704 28.2027C17.6948 28.2154 17.7164 28.2327 17.7341 28.2538C17.7517 28.2749 17.765 28.2992 17.7733 28.3254C17.7815 28.3516 17.7845 28.3792 17.7821 28.4065C17.7797 28.4339 17.7719 28.4605 17.7592 28.4849C17.7465 28.5092 17.7291 28.5308 17.7081 28.5485V28.5398ZM21.1061 26.8325H19.8622C19.8347 26.8331 19.8074 26.8281 19.7819 26.8178C19.7564 26.8076 19.7332 26.7923 19.7138 26.7729C19.6943 26.7534 19.679 26.7303 19.6688 26.7048C19.6585 26.6793 19.6535 26.6519 19.6541 26.6245C19.6541 26.5693 19.6761 26.5164 19.7151 26.4774C19.7541 26.4384 19.807 26.4165 19.8622 26.4165H21.1061C21.1617 26.4165 21.2151 26.4382 21.2548 26.4771C21.2945 26.516 21.3174 26.5689 21.3185 26.6245C21.3185 26.6521 21.313 26.6796 21.3023 26.7051C21.2915 26.7306 21.2758 26.7537 21.256 26.7731C21.2363 26.7925 21.2128 26.8077 21.1871 26.8179C21.1613 26.8281 21.1338 26.833 21.1061 26.8325Z" fill="white"/>
</g>
<defs>
<clipPath id="clip0_121_7207">
<rect width="22.5334" height="22.5334" fill="white" transform="translate(14.5879 14.7334)"/>
</clipPath>
</defs>
</svg>
