<svg width="73" height="19" viewBox="0 0 73 19" fill="none" xmlns="http://www.w3.org/2000/svg">
<rect x="0.5" y="0.5" width="71" height="18" rx="9" fill="#DB001E" stroke="white"/>
<path d="M11.5469 14H10.416L6.12109 7.42578V14H4.99023V5.46875H6.12109L10.4277 12.0723V5.46875H11.5469V14ZM13.0879 10.7715C13.0879 10.1504 13.209 9.5918 13.4512 9.0957C13.6973 8.59961 14.0371 8.2168 14.4707 7.94727C14.9082 7.67773 15.4062 7.54297 15.9648 7.54297C16.8281 7.54297 17.5254 7.8418 18.0566 8.43945C18.5918 9.03711 18.8594 9.83203 18.8594 10.8242V10.9004C18.8594 11.5176 18.7402 12.0723 18.502 12.5645C18.2676 13.0527 17.9297 13.4336 17.4883 13.707C17.0508 13.9805 16.5469 14.1172 15.9766 14.1172C15.1172 14.1172 14.4199 13.8184 13.8848 13.2207C13.3535 12.623 13.0879 11.832 13.0879 10.8477V10.7715ZM14.1777 10.9004C14.1777 11.6035 14.3398 12.168 14.6641 12.5938C14.9922 13.0195 15.4297 13.2324 15.9766 13.2324C16.5273 13.2324 16.9648 13.0176 17.2891 12.5879C17.6133 12.1543 17.7754 11.5488 17.7754 10.7715C17.7754 10.0762 17.6094 9.51367 17.2773 9.08398C16.9492 8.65039 16.5117 8.43359 15.9648 8.43359C15.4297 8.43359 14.998 8.64648 14.6699 9.07227C14.3418 9.49805 14.1777 10.1074 14.1777 10.9004ZM21.6895 6.125V7.66016H22.873V8.49805H21.6895V12.4297C21.6895 12.6836 21.7422 12.875 21.8477 13.0039C21.9531 13.1289 22.1328 13.1914 22.3867 13.1914C22.5117 13.1914 22.6836 13.168 22.9023 13.1211V14C22.6172 14.0781 22.3398 14.1172 22.0703 14.1172C21.5859 14.1172 21.2207 13.9707 20.9746 13.6777C20.7285 13.3848 20.6055 12.9688 20.6055 12.4297V8.49805H19.4512V7.66016H20.6055V6.125H21.6895ZM30.1152 12.5059L32.5527 5.46875H33.7832L30.6191 14H29.623L26.4648 5.46875H27.6895L30.1152 12.5059ZM37.1348 14.1172C36.2754 14.1172 35.5762 13.8359 35.0371 13.2734C34.498 12.707 34.2285 11.9512 34.2285 11.0059V10.8066C34.2285 10.1777 34.3477 9.61719 34.5859 9.125C34.8281 8.62891 35.1641 8.24219 35.5938 7.96484C36.0273 7.68359 36.4961 7.54297 37 7.54297C37.8242 7.54297 38.4648 7.81445 38.9219 8.35742C39.3789 8.90039 39.6074 9.67773 39.6074 10.6895V11.1406H35.3125C35.3281 11.7656 35.5098 12.2715 35.8574 12.6582C36.209 13.041 36.6543 13.2324 37.1934 13.2324C37.5762 13.2324 37.9004 13.1543 38.166 12.998C38.4316 12.8418 38.6641 12.6348 38.8633 12.377L39.5254 12.8926C38.9941 13.709 38.1973 14.1172 37.1348 14.1172ZM37 8.43359C36.5625 8.43359 36.1953 8.59375 35.8984 8.91406C35.6016 9.23047 35.418 9.67578 35.3477 10.25H38.5234V10.168C38.4922 9.61719 38.3438 9.19141 38.0781 8.89062C37.8125 8.58594 37.4531 8.43359 37 8.43359ZM43.9316 8.63281C43.7676 8.60547 43.5898 8.5918 43.3984 8.5918C42.6875 8.5918 42.2051 8.89453 41.9512 9.5V14H40.8672V7.66016H41.9219L41.9395 8.39258C42.2949 7.82617 42.7988 7.54297 43.4512 7.54297C43.6621 7.54297 43.8223 7.57031 43.9316 7.625V8.63281ZM46.1113 14H45.0273V7.66016H46.1113V14ZM44.9395 5.97852C44.9395 5.80273 44.9922 5.6543 45.0977 5.5332C45.207 5.41211 45.3672 5.35156 45.5781 5.35156C45.7891 5.35156 45.9492 5.41211 46.0586 5.5332C46.168 5.6543 46.2227 5.80273 46.2227 5.97852C46.2227 6.1543 46.168 6.30078 46.0586 6.41797C45.9492 6.53516 45.7891 6.59375 45.5781 6.59375C45.3672 6.59375 45.207 6.53516 45.0977 6.41797C44.9922 6.30078 44.9395 6.1543 44.9395 5.97852ZM48.3848 14V8.49805H47.3828V7.66016H48.3848V7.00977C48.3848 6.33008 48.5664 5.80469 48.9297 5.43359C49.293 5.0625 49.8066 4.87695 50.4707 4.87695C50.7207 4.87695 50.9688 4.91016 51.2148 4.97656L51.1562 5.85547C50.9727 5.82031 50.7773 5.80273 50.5703 5.80273C50.2188 5.80273 49.9473 5.90625 49.7559 6.11328C49.5645 6.31641 49.4688 6.60938 49.4688 6.99219V7.66016H50.8223V8.49805H49.4688V14H48.3848ZM53.2012 14H52.1172V7.66016H53.2012V14ZM52.0293 5.97852C52.0293 5.80273 52.082 5.6543 52.1875 5.5332C52.2969 5.41211 52.457 5.35156 52.668 5.35156C52.8789 5.35156 53.0391 5.41211 53.1484 5.5332C53.2578 5.6543 53.3125 5.80273 53.3125 5.97852C53.3125 6.1543 53.2578 6.30078 53.1484 6.41797C53.0391 6.53516 52.8789 6.59375 52.668 6.59375C52.457 6.59375 52.2969 6.53516 52.1875 6.41797C52.082 6.30078 52.0293 6.1543 52.0293 5.97852ZM57.5723 14.1172C56.7129 14.1172 56.0137 13.8359 55.4746 13.2734C54.9355 12.707 54.666 11.9512 54.666 11.0059V10.8066C54.666 10.1777 54.7852 9.61719 55.0234 9.125C55.2656 8.62891 55.6016 8.24219 56.0312 7.96484C56.4648 7.68359 56.9336 7.54297 57.4375 7.54297C58.2617 7.54297 58.9023 7.81445 59.3594 8.35742C59.8164 8.90039 60.0449 9.67773 60.0449 10.6895V11.1406H55.75C55.7656 11.7656 55.9473 12.2715 56.2949 12.6582C56.6465 13.041 57.0918 13.2324 57.6309 13.2324C58.0137 13.2324 58.3379 13.1543 58.6035 12.998C58.8691 12.8418 59.1016 12.6348 59.3008 12.377L59.9629 12.8926C59.4316 13.709 58.6348 14.1172 57.5723 14.1172ZM57.4375 8.43359C57 8.43359 56.6328 8.59375 56.3359 8.91406C56.0391 9.23047 55.8555 9.67578 55.7852 10.25H58.9609V10.168C58.9297 9.61719 58.7812 9.19141 58.5156 8.89062C58.25 8.58594 57.8906 8.43359 57.4375 8.43359ZM61.041 10.7773C61.041 9.80469 61.2715 9.02344 61.7324 8.43359C62.1934 7.83984 62.7969 7.54297 63.543 7.54297C64.2852 7.54297 64.873 7.79688 65.3066 8.30469V5H66.3906V14H65.3945L65.3418 13.3203C64.9082 13.8516 64.3047 14.1172 63.5312 14.1172C62.7969 14.1172 62.1973 13.8164 61.7324 13.2148C61.2715 12.6133 61.041 11.8281 61.041 10.8594V10.7773ZM62.125 10.9004C62.125 11.6191 62.2734 12.1816 62.5703 12.5879C62.8672 12.9941 63.2773 13.1973 63.8008 13.1973C64.4883 13.1973 64.9902 12.8887 65.3066 12.2715V9.35938C64.9824 8.76172 64.4844 8.46289 63.8125 8.46289C63.2812 8.46289 62.8672 8.66797 62.5703 9.07812C62.2734 9.48828 62.125 10.0957 62.125 10.9004Z" fill="white"/>
</svg>
